<svg xmlns="http://www.w3.org/2000/svg" xmlns:svg="http://www.w3.org/2000/svg" width="1280" height="720"><g><title>Layer 1</title><circle id="svg_1" cx="182" cy="71" r="20.591" fill="#fff" stroke="#000" stroke-width="5"/><circle id="svg_2" cx="825" cy="131" r="34.205" fill="#fff" stroke="#000" stroke-width="5"/><circle id="svg_3" cx="484" cy="159" r="22.672" fill="#fff" stroke="#000" stroke-width="5"/><rect id="svg_4" width="117" height="49" x="1009" y="182" fill="#fff" stroke="#000" stroke-width="5" transform="rotate(-16.157339096069336 1067.5,206.50000000000045)"/><rect id="svg_5" width="134" height="55" x="188" y="263" fill="#fff" stroke="#000" stroke-width="5" transform="rotate(27.96711540222168 255.0000000000001,290.5)"/><ellipse id="svg_6" cx="609" cy="250" fill="#fff" stroke="#000" stroke-dasharray="null" stroke-linecap="null" stroke-linejoin="null" stroke-width="5" rx="55" ry="26"/><polygon id="svg_11" fill="#ff0" stroke="#000" stroke-width="5" points="512.298 334 485.144 371.375 441.207 357.099 441.207 310.901 485.144 296.625 512.298 334"/><line id="svg_8" x1="6" x2="277" y1="359" y2="509" fill="none" stroke="#ffaa56" stroke-linecap="null" stroke-linejoin="null" stroke-width="5"/><line id="svg_10" x1="2" x2="2" y1="3" y2="723.168" fill="none" stroke="#ffaa56" stroke-dasharray="null" stroke-linecap="null" stroke-linejoin="null" stroke-width="5"/><line id="svg_12" x1="1277" x2="1277" y1="2" y2="715.045" fill="none" stroke="#ffaa56" stroke-dasharray="null" stroke-linecap="null" stroke-linejoin="null" stroke-width="5"/><line id="svg_13" x1="49" x2="1253.02" y1="4" y2="4" fill="none" stroke="#ffaa56" stroke-dasharray="null" stroke-linecap="null" stroke-linejoin="null" stroke-width="5"/><rect id="svg_14" width="92" height="92" x="307" y="76" fill="none" stroke="#ffaa56" stroke-dasharray="null" stroke-linecap="null" stroke-linejoin="null" stroke-width="5"/><rect id="svg_15" width="28" height="28" x="956" y="76" fill="none" stroke="#ffaa56" stroke-dasharray="null" stroke-linecap="null" stroke-linejoin="null" stroke-width="5" transform="rotate(30.963756561279297 970.0000000000002,90.00000000000001)"/><rect id="svg_16" width="33" height="33" x="643" y="94" fill="none" stroke="#ffaa56" stroke-dasharray="null" stroke-linecap="null" stroke-linejoin="null" stroke-width="5" transform="rotate(-108.8118896484375 659.5,110.49999999999997)"/><rect id="svg_17" width="42" height="42" x="478" y="67" fill="none" stroke="#ffaa56" stroke-dasharray="null" stroke-linecap="null" stroke-linejoin="null" stroke-width="5" transform="rotate(52.4314079284668 499.00000000000006,88.00000000000003)"/><circle id="svg_18" cx="851" cy="254" r="52.697" fill="none" stroke="#ffaa56" stroke-dasharray="null" stroke-linecap="null" stroke-linejoin="null" stroke-width="5"/><circle id="svg_19" cx="1036" cy="346" r="18.601" fill="none" stroke="#ffaa56" stroke-dasharray="null" stroke-linecap="null" stroke-linejoin="null" stroke-width="5"/><circle id="svg_20" cx="814" cy="447" r="20.616" fill="none" stroke="#ffaa56" stroke-dasharray="null" stroke-linecap="null" stroke-linejoin="null" stroke-width="5"/><circle id="svg_21" cx="611" cy="397" r="18.868" fill="none" stroke="#ffaa56" stroke-dasharray="null" stroke-linecap="null" stroke-linejoin="null" stroke-width="5"/><circle id="svg_22" cx="497" cy="409" r="21.932" fill="none" stroke="#ffaa56" stroke-dasharray="null" stroke-linecap="null" stroke-linejoin="null" stroke-width="5"/><circle id="svg_23" cx="101" cy="133" r="26.173" fill="none" stroke="#ffaa56" stroke-dasharray="null" stroke-linecap="null" stroke-linejoin="null" stroke-width="5"/><circle id="svg_24" cx="51" cy="216" r="18.439" fill="none" stroke="#ffaa56" stroke-dasharray="null" stroke-linecap="null" stroke-linejoin="null" stroke-width="5"/><line id="svg_25" x1="97.582" x2="1189.418" y1="322.715" y2="879.285" fill="none" stroke="#ffaa56" stroke-linecap="null" stroke-linejoin="null" stroke-width="5" transform="rotate(-26.599964141845703 643.5000000000005,601)"/><line id="svg_26" x1="1014" x2="1285" y1="428" y2="578" fill="none" stroke="#ffaa56" stroke-linecap="null" stroke-linejoin="null" stroke-width="5" transform="rotate(-69.27593994140625 1149.5,503)"/><line id="svg_27" x1="1014" x2="1285" y1="428" y2="578" fill="none" stroke="#ffaa56" stroke-linecap="null" stroke-linejoin="null" stroke-width="5" transform="rotate(-69.27593994140625 1149.5,503)"/><line id="svg_29" x1="521.966" x2="774.034" y1="519.839" y2="562.161" fill="none" stroke="#ffaa56" stroke-linecap="null" stroke-linejoin="null" stroke-width="5" transform="rotate(18.916812896728516 648.0000000000002,540.9999999999998)"/></g></svg>